<mxfile host="app.diagrams.net" agent="Mozilla/5.0 (X11; Linux x86_64) AppleWebKit/537.36 (KHTML, like Gecko) Chrome/131.0.0.0 Safari/537.36" version="26.0.4">
  <diagram name="Page-1" id="Vm3EjHy51KyQa139HbZe">
    <mxGraphModel dx="3526" dy="771" grid="1" gridSize="10" guides="1" tooltips="1" connect="1" arrows="1" fold="1" page="1" pageScale="1" pageWidth="850" pageHeight="1100" math="0" shadow="0">
      <root>
        <mxCell id="0" />
        <mxCell id="1" parent="0" />
        <mxCell id="7posg-FdAyKpSg142TQ0-1" value="user" style="swimlane;fontStyle=1;align=center;verticalAlign=top;childLayout=stackLayout;horizontal=1;startSize=26;horizontalStack=0;resizeParent=1;resizeParentMax=0;resizeLast=0;collapsible=1;marginBottom=0;whiteSpace=wrap;html=1;" vertex="1" parent="1">
          <mxGeometry x="-630" y="640" width="160" height="164" as="geometry" />
        </mxCell>
        <mxCell id="7posg-FdAyKpSg142TQ0-3" value="+ username:string" style="text;strokeColor=none;fillColor=none;align=left;verticalAlign=top;spacingLeft=4;spacingRight=4;overflow=hidden;rotatable=0;points=[[0,0.5],[1,0.5]];portConstraint=eastwest;whiteSpace=wrap;html=1;" vertex="1" parent="7posg-FdAyKpSg142TQ0-1">
          <mxGeometry y="26" width="160" height="26" as="geometry" />
        </mxCell>
        <mxCell id="7posg-FdAyKpSg142TQ0-4" value="+ password:string" style="text;strokeColor=none;fillColor=none;align=left;verticalAlign=top;spacingLeft=4;spacingRight=4;overflow=hidden;rotatable=0;points=[[0,0.5],[1,0.5]];portConstraint=eastwest;whiteSpace=wrap;html=1;" vertex="1" parent="7posg-FdAyKpSg142TQ0-1">
          <mxGeometry y="52" width="160" height="26" as="geometry" />
        </mxCell>
        <mxCell id="7posg-FdAyKpSg142TQ0-5" value="+ firstname:string" style="text;strokeColor=none;fillColor=none;align=left;verticalAlign=top;spacingLeft=4;spacingRight=4;overflow=hidden;rotatable=0;points=[[0,0.5],[1,0.5]];portConstraint=eastwest;whiteSpace=wrap;html=1;" vertex="1" parent="7posg-FdAyKpSg142TQ0-1">
          <mxGeometry y="78" width="160" height="26" as="geometry" />
        </mxCell>
        <mxCell id="7posg-FdAyKpSg142TQ0-6" value="+ lastname:string" style="text;strokeColor=none;fillColor=none;align=left;verticalAlign=top;spacingLeft=4;spacingRight=4;overflow=hidden;rotatable=0;points=[[0,0.5],[1,0.5]];portConstraint=eastwest;whiteSpace=wrap;html=1;" vertex="1" parent="7posg-FdAyKpSg142TQ0-1">
          <mxGeometry y="104" width="160" height="26" as="geometry" />
        </mxCell>
        <mxCell id="7posg-FdAyKpSg142TQ0-7" value="+ email:string" style="text;strokeColor=none;fillColor=none;align=left;verticalAlign=top;spacingLeft=4;spacingRight=4;overflow=hidden;rotatable=0;points=[[0,0.5],[1,0.5]];portConstraint=eastwest;whiteSpace=wrap;html=1;" vertex="1" parent="7posg-FdAyKpSg142TQ0-1">
          <mxGeometry y="130" width="160" height="26" as="geometry" />
        </mxCell>
        <mxCell id="7posg-FdAyKpSg142TQ0-13" value="" style="line;strokeWidth=1;fillColor=none;align=left;verticalAlign=middle;spacingTop=-1;spacingLeft=3;spacingRight=3;rotatable=0;labelPosition=right;points=[];portConstraint=eastwest;strokeColor=inherit;" vertex="1" parent="7posg-FdAyKpSg142TQ0-1">
          <mxGeometry y="156" width="160" height="8" as="geometry" />
        </mxCell>
        <mxCell id="7posg-FdAyKpSg142TQ0-62" value="speach_to_text_model" style="swimlane;fontStyle=1;align=center;verticalAlign=top;childLayout=stackLayout;horizontal=1;startSize=26;horizontalStack=0;resizeParent=1;resizeParentMax=0;resizeLast=0;collapsible=1;marginBottom=0;whiteSpace=wrap;html=1;" vertex="1" parent="1">
          <mxGeometry x="-1160" y="430" width="160" height="86" as="geometry" />
        </mxCell>
        <mxCell id="7posg-FdAyKpSg142TQ0-63" value="- model_name : string" style="text;strokeColor=none;fillColor=none;align=left;verticalAlign=top;spacingLeft=4;spacingRight=4;overflow=hidden;rotatable=0;points=[[0,0.5],[1,0.5]];portConstraint=eastwest;whiteSpace=wrap;html=1;" vertex="1" parent="7posg-FdAyKpSg142TQ0-62">
          <mxGeometry y="26" width="160" height="26" as="geometry" />
        </mxCell>
        <mxCell id="7posg-FdAyKpSg142TQ0-64" value="" style="line;strokeWidth=1;fillColor=none;align=left;verticalAlign=middle;spacingTop=-1;spacingLeft=3;spacingRight=3;rotatable=0;labelPosition=right;points=[];portConstraint=eastwest;strokeColor=inherit;" vertex="1" parent="7posg-FdAyKpSg142TQ0-62">
          <mxGeometry y="52" width="160" height="8" as="geometry" />
        </mxCell>
        <mxCell id="7posg-FdAyKpSg142TQ0-65" value="+ convert(bytes): string" style="text;strokeColor=none;fillColor=none;align=left;verticalAlign=top;spacingLeft=4;spacingRight=4;overflow=hidden;rotatable=0;points=[[0,0.5],[1,0.5]];portConstraint=eastwest;whiteSpace=wrap;html=1;" vertex="1" parent="7posg-FdAyKpSg142TQ0-62">
          <mxGeometry y="60" width="160" height="26" as="geometry" />
        </mxCell>
        <mxCell id="7posg-FdAyKpSg142TQ0-68" value="text_to_speach_model" style="swimlane;fontStyle=1;align=center;verticalAlign=top;childLayout=stackLayout;horizontal=1;startSize=26;horizontalStack=0;resizeParent=1;resizeParentMax=0;resizeLast=0;collapsible=1;marginBottom=0;whiteSpace=wrap;html=1;" vertex="1" parent="1">
          <mxGeometry x="-900" y="430" width="160" height="86" as="geometry" />
        </mxCell>
        <mxCell id="7posg-FdAyKpSg142TQ0-69" value="- model_name : string" style="text;strokeColor=none;fillColor=none;align=left;verticalAlign=top;spacingLeft=4;spacingRight=4;overflow=hidden;rotatable=0;points=[[0,0.5],[1,0.5]];portConstraint=eastwest;whiteSpace=wrap;html=1;" vertex="1" parent="7posg-FdAyKpSg142TQ0-68">
          <mxGeometry y="26" width="160" height="26" as="geometry" />
        </mxCell>
        <mxCell id="7posg-FdAyKpSg142TQ0-73" value="" style="line;strokeWidth=1;fillColor=none;align=left;verticalAlign=middle;spacingTop=-1;spacingLeft=3;spacingRight=3;rotatable=0;labelPosition=right;points=[];portConstraint=eastwest;strokeColor=inherit;" vertex="1" parent="7posg-FdAyKpSg142TQ0-68">
          <mxGeometry y="52" width="160" height="8" as="geometry" />
        </mxCell>
        <mxCell id="7posg-FdAyKpSg142TQ0-74" value="+ convert(bytes): string" style="text;strokeColor=none;fillColor=none;align=left;verticalAlign=top;spacingLeft=4;spacingRight=4;overflow=hidden;rotatable=0;points=[[0,0.5],[1,0.5]];portConstraint=eastwest;whiteSpace=wrap;html=1;" vertex="1" parent="7posg-FdAyKpSg142TQ0-68">
          <mxGeometry y="60" width="160" height="26" as="geometry" />
        </mxCell>
        <mxCell id="7posg-FdAyKpSg142TQ0-81" value="embeding_model" style="swimlane;fontStyle=1;align=center;verticalAlign=top;childLayout=stackLayout;horizontal=1;startSize=26;horizontalStack=0;resizeParent=1;resizeParentMax=0;resizeLast=0;collapsible=1;marginBottom=0;whiteSpace=wrap;html=1;" vertex="1" parent="1">
          <mxGeometry x="-1340" y="823" width="160" height="86" as="geometry" />
        </mxCell>
        <mxCell id="7posg-FdAyKpSg142TQ0-82" value="+ name: string" style="text;strokeColor=none;fillColor=none;align=left;verticalAlign=top;spacingLeft=4;spacingRight=4;overflow=hidden;rotatable=0;points=[[0,0.5],[1,0.5]];portConstraint=eastwest;whiteSpace=wrap;html=1;" vertex="1" parent="7posg-FdAyKpSg142TQ0-81">
          <mxGeometry y="26" width="160" height="26" as="geometry" />
        </mxCell>
        <mxCell id="7posg-FdAyKpSg142TQ0-84" value="" style="line;strokeWidth=1;fillColor=none;align=left;verticalAlign=middle;spacingTop=-1;spacingLeft=3;spacingRight=3;rotatable=0;labelPosition=right;points=[];portConstraint=eastwest;strokeColor=inherit;" vertex="1" parent="7posg-FdAyKpSg142TQ0-81">
          <mxGeometry y="52" width="160" height="8" as="geometry" />
        </mxCell>
        <mxCell id="7posg-FdAyKpSg142TQ0-85" value="+ embed(string): vect" style="text;strokeColor=none;fillColor=none;align=left;verticalAlign=top;spacingLeft=4;spacingRight=4;overflow=hidden;rotatable=0;points=[[0,0.5],[1,0.5]];portConstraint=eastwest;whiteSpace=wrap;html=1;" vertex="1" parent="7posg-FdAyKpSg142TQ0-81">
          <mxGeometry y="60" width="160" height="26" as="geometry" />
        </mxCell>
        <mxCell id="7posg-FdAyKpSg142TQ0-89" value="LLM" style="swimlane;fontStyle=1;align=center;verticalAlign=top;childLayout=stackLayout;horizontal=1;startSize=26;horizontalStack=0;resizeParent=1;resizeParentMax=0;resizeLast=0;collapsible=1;marginBottom=0;whiteSpace=wrap;html=1;" vertex="1" parent="1">
          <mxGeometry x="-1330" y="533" width="160" height="86" as="geometry" />
        </mxCell>
        <mxCell id="7posg-FdAyKpSg142TQ0-90" value="- name: string" style="text;strokeColor=none;fillColor=none;align=left;verticalAlign=top;spacingLeft=4;spacingRight=4;overflow=hidden;rotatable=0;points=[[0,0.5],[1,0.5]];portConstraint=eastwest;whiteSpace=wrap;html=1;" vertex="1" parent="7posg-FdAyKpSg142TQ0-89">
          <mxGeometry y="26" width="160" height="26" as="geometry" />
        </mxCell>
        <mxCell id="7posg-FdAyKpSg142TQ0-91" value="" style="line;strokeWidth=1;fillColor=none;align=left;verticalAlign=middle;spacingTop=-1;spacingLeft=3;spacingRight=3;rotatable=0;labelPosition=right;points=[];portConstraint=eastwest;strokeColor=inherit;" vertex="1" parent="7posg-FdAyKpSg142TQ0-89">
          <mxGeometry y="52" width="160" height="8" as="geometry" />
        </mxCell>
        <mxCell id="7posg-FdAyKpSg142TQ0-92" value="+ answer(string): string" style="text;strokeColor=none;fillColor=none;align=left;verticalAlign=top;spacingLeft=4;spacingRight=4;overflow=hidden;rotatable=0;points=[[0,0.5],[1,0.5]];portConstraint=eastwest;whiteSpace=wrap;html=1;" vertex="1" parent="7posg-FdAyKpSg142TQ0-89">
          <mxGeometry y="60" width="160" height="26" as="geometry" />
        </mxCell>
        <mxCell id="7posg-FdAyKpSg142TQ0-105" value="server" style="swimlane;fontStyle=1;align=center;verticalAlign=top;childLayout=stackLayout;horizontal=1;startSize=26;horizontalStack=0;resizeParent=1;resizeParentMax=0;resizeLast=0;collapsible=1;marginBottom=0;whiteSpace=wrap;html=1;" vertex="1" parent="1">
          <mxGeometry x="-1350" y="720" width="190" height="60" as="geometry" />
        </mxCell>
        <mxCell id="7posg-FdAyKpSg142TQ0-106" value="" style="line;strokeWidth=1;fillColor=none;align=left;verticalAlign=middle;spacingTop=-1;spacingLeft=3;spacingRight=3;rotatable=0;labelPosition=right;points=[];portConstraint=eastwest;strokeColor=inherit;" vertex="1" parent="7posg-FdAyKpSg142TQ0-105">
          <mxGeometry y="26" width="190" height="8" as="geometry" />
        </mxCell>
        <mxCell id="7posg-FdAyKpSg142TQ0-107" value="+ sendRequest(type,message):&amp;nbsp;" style="text;strokeColor=none;fillColor=none;align=left;verticalAlign=top;spacingLeft=4;spacingRight=4;overflow=hidden;rotatable=0;points=[[0,0.5],[1,0.5]];portConstraint=eastwest;whiteSpace=wrap;html=1;" vertex="1" parent="7posg-FdAyKpSg142TQ0-105">
          <mxGeometry y="34" width="190" height="26" as="geometry" />
        </mxCell>
        <mxCell id="7posg-FdAyKpSg142TQ0-108" value="" style="endArrow=none;endFill=0;endSize=12;html=1;rounded=0;" edge="1" parent="1" source="7posg-FdAyKpSg142TQ0-105" target="7posg-FdAyKpSg142TQ0-148">
          <mxGeometry width="160" relative="1" as="geometry">
            <mxPoint x="-1185" y="890" as="sourcePoint" />
            <mxPoint x="-835" y="962.52" as="targetPoint" />
          </mxGeometry>
        </mxCell>
        <mxCell id="7posg-FdAyKpSg142TQ0-109" value="1" style="edgeLabel;html=1;align=center;verticalAlign=middle;resizable=0;points=[];" vertex="1" connectable="0" parent="7posg-FdAyKpSg142TQ0-108">
          <mxGeometry x="0.8428" y="-2" relative="1" as="geometry">
            <mxPoint x="8" y="11" as="offset" />
          </mxGeometry>
        </mxCell>
        <mxCell id="7posg-FdAyKpSg142TQ0-110" value="1" style="edgeLabel;html=1;align=center;verticalAlign=middle;resizable=0;points=[];" vertex="1" connectable="0" parent="7posg-FdAyKpSg142TQ0-108">
          <mxGeometry x="-0.8177" relative="1" as="geometry">
            <mxPoint as="offset" />
          </mxGeometry>
        </mxCell>
        <mxCell id="7posg-FdAyKpSg142TQ0-111" value="quary &amp;gt;" style="edgeLabel;html=1;align=center;verticalAlign=middle;resizable=0;points=[];" vertex="1" connectable="0" parent="7posg-FdAyKpSg142TQ0-108">
          <mxGeometry x="0.1107" y="-3" relative="1" as="geometry">
            <mxPoint x="-1" as="offset" />
          </mxGeometry>
        </mxCell>
        <mxCell id="7posg-FdAyKpSg142TQ0-112" value="" style="endArrow=diamondThin;endFill=0;endSize=24;html=1;rounded=0;" edge="1" parent="1" source="7posg-FdAyKpSg142TQ0-105" target="7posg-FdAyKpSg142TQ0-89">
          <mxGeometry width="160" relative="1" as="geometry">
            <mxPoint x="-1300" y="1028" as="sourcePoint" />
            <mxPoint x="-1286" y="864" as="targetPoint" />
          </mxGeometry>
        </mxCell>
        <mxCell id="7posg-FdAyKpSg142TQ0-113" value="1" style="edgeLabel;html=1;align=center;verticalAlign=middle;resizable=0;points=[];" vertex="1" connectable="0" parent="7posg-FdAyKpSg142TQ0-112">
          <mxGeometry x="-0.7688" y="2" relative="1" as="geometry">
            <mxPoint as="offset" />
          </mxGeometry>
        </mxCell>
        <mxCell id="7posg-FdAyKpSg142TQ0-114" value="1" style="edgeLabel;html=1;align=center;verticalAlign=middle;resizable=0;points=[];" vertex="1" connectable="0" parent="7posg-FdAyKpSg142TQ0-112">
          <mxGeometry x="0.5125" relative="1" as="geometry">
            <mxPoint as="offset" />
          </mxGeometry>
        </mxCell>
        <mxCell id="7posg-FdAyKpSg142TQ0-115" value="ask &amp;gt;" style="edgeLabel;html=1;align=center;verticalAlign=middle;resizable=0;points=[];" vertex="1" connectable="0" parent="7posg-FdAyKpSg142TQ0-112">
          <mxGeometry x="-0.1578" y="-2" relative="1" as="geometry">
            <mxPoint as="offset" />
          </mxGeometry>
        </mxCell>
        <mxCell id="7posg-FdAyKpSg142TQ0-116" value="user_interface" style="swimlane;fontStyle=1;align=center;verticalAlign=top;childLayout=stackLayout;horizontal=1;startSize=26;horizontalStack=0;resizeParent=1;resizeParentMax=0;resizeLast=0;collapsible=1;marginBottom=0;whiteSpace=wrap;html=1;" vertex="1" parent="1">
          <mxGeometry x="-915" y="692" width="190" height="60" as="geometry" />
        </mxCell>
        <mxCell id="7posg-FdAyKpSg142TQ0-117" value="" style="line;strokeWidth=1;fillColor=none;align=left;verticalAlign=middle;spacingTop=-1;spacingLeft=3;spacingRight=3;rotatable=0;labelPosition=right;points=[];portConstraint=eastwest;strokeColor=inherit;" vertex="1" parent="7posg-FdAyKpSg142TQ0-116">
          <mxGeometry y="26" width="190" height="8" as="geometry" />
        </mxCell>
        <mxCell id="7posg-FdAyKpSg142TQ0-118" value="+ sendRequest(type,message):&amp;nbsp;" style="text;strokeColor=none;fillColor=none;align=left;verticalAlign=top;spacingLeft=4;spacingRight=4;overflow=hidden;rotatable=0;points=[[0,0.5],[1,0.5]];portConstraint=eastwest;whiteSpace=wrap;html=1;" vertex="1" parent="7posg-FdAyKpSg142TQ0-116">
          <mxGeometry y="34" width="190" height="26" as="geometry" />
        </mxCell>
        <mxCell id="7posg-FdAyKpSg142TQ0-119" value="" style="endArrow=none;endFill=0;endSize=12;html=1;rounded=0;" edge="1" parent="1" source="7posg-FdAyKpSg142TQ0-116" target="7posg-FdAyKpSg142TQ0-105">
          <mxGeometry width="160" relative="1" as="geometry">
            <mxPoint x="-1326" y="790" as="sourcePoint" />
            <mxPoint x="-1650" y="910" as="targetPoint" />
          </mxGeometry>
        </mxCell>
        <mxCell id="7posg-FdAyKpSg142TQ0-120" value="1" style="edgeLabel;html=1;align=center;verticalAlign=middle;resizable=0;points=[];" vertex="1" connectable="0" parent="7posg-FdAyKpSg142TQ0-119">
          <mxGeometry x="0.8428" y="-2" relative="1" as="geometry">
            <mxPoint x="8" y="11" as="offset" />
          </mxGeometry>
        </mxCell>
        <mxCell id="7posg-FdAyKpSg142TQ0-121" value="0...*" style="edgeLabel;html=1;align=center;verticalAlign=middle;resizable=0;points=[];" vertex="1" connectable="0" parent="7posg-FdAyKpSg142TQ0-119">
          <mxGeometry x="-0.8177" relative="1" as="geometry">
            <mxPoint as="offset" />
          </mxGeometry>
        </mxCell>
        <mxCell id="7posg-FdAyKpSg142TQ0-122" value="ask question &amp;gt;" style="edgeLabel;html=1;align=center;verticalAlign=middle;resizable=0;points=[];" vertex="1" connectable="0" parent="7posg-FdAyKpSg142TQ0-119">
          <mxGeometry x="0.1107" y="-3" relative="1" as="geometry">
            <mxPoint as="offset" />
          </mxGeometry>
        </mxCell>
        <mxCell id="7posg-FdAyKpSg142TQ0-123" value="" style="endArrow=none;endFill=0;endSize=12;html=1;rounded=0;" edge="1" parent="1" source="7posg-FdAyKpSg142TQ0-105" target="7posg-FdAyKpSg142TQ0-81">
          <mxGeometry width="160" relative="1" as="geometry">
            <mxPoint x="-1326" y="790" as="sourcePoint" />
            <mxPoint x="-1650" y="910" as="targetPoint" />
          </mxGeometry>
        </mxCell>
        <mxCell id="7posg-FdAyKpSg142TQ0-124" value="1" style="edgeLabel;html=1;align=center;verticalAlign=middle;resizable=0;points=[];" vertex="1" connectable="0" parent="7posg-FdAyKpSg142TQ0-123">
          <mxGeometry x="0.8428" y="-2" relative="1" as="geometry">
            <mxPoint x="8" y="11" as="offset" />
          </mxGeometry>
        </mxCell>
        <mxCell id="7posg-FdAyKpSg142TQ0-125" value="1" style="edgeLabel;html=1;align=center;verticalAlign=middle;resizable=0;points=[];" vertex="1" connectable="0" parent="7posg-FdAyKpSg142TQ0-123">
          <mxGeometry x="-0.8177" relative="1" as="geometry">
            <mxPoint as="offset" />
          </mxGeometry>
        </mxCell>
        <mxCell id="7posg-FdAyKpSg142TQ0-126" value="&amp;lt;embed text&amp;nbsp;" style="edgeLabel;html=1;align=center;verticalAlign=middle;resizable=0;points=[];" vertex="1" connectable="0" parent="7posg-FdAyKpSg142TQ0-123">
          <mxGeometry x="0.1107" y="-3" relative="1" as="geometry">
            <mxPoint as="offset" />
          </mxGeometry>
        </mxCell>
        <mxCell id="7posg-FdAyKpSg142TQ0-131" value="" style="endArrow=diamondThin;endFill=0;endSize=24;html=1;rounded=0;" edge="1" parent="1" source="7posg-FdAyKpSg142TQ0-116" target="7posg-FdAyKpSg142TQ0-68">
          <mxGeometry width="160" relative="1" as="geometry">
            <mxPoint x="-1211" y="790" as="sourcePoint" />
            <mxPoint x="-1088" y="900" as="targetPoint" />
          </mxGeometry>
        </mxCell>
        <mxCell id="7posg-FdAyKpSg142TQ0-132" value="1" style="edgeLabel;html=1;align=center;verticalAlign=middle;resizable=0;points=[];" vertex="1" connectable="0" parent="7posg-FdAyKpSg142TQ0-131">
          <mxGeometry x="-0.7688" y="2" relative="1" as="geometry">
            <mxPoint as="offset" />
          </mxGeometry>
        </mxCell>
        <mxCell id="7posg-FdAyKpSg142TQ0-133" value="1" style="edgeLabel;html=1;align=center;verticalAlign=middle;resizable=0;points=[];" vertex="1" connectable="0" parent="7posg-FdAyKpSg142TQ0-131">
          <mxGeometry x="0.5125" relative="1" as="geometry">
            <mxPoint as="offset" />
          </mxGeometry>
        </mxCell>
        <mxCell id="7posg-FdAyKpSg142TQ0-134" value="" style="endArrow=diamondThin;endFill=0;endSize=24;html=1;rounded=0;" edge="1" parent="1" source="7posg-FdAyKpSg142TQ0-116" target="7posg-FdAyKpSg142TQ0-62">
          <mxGeometry width="160" relative="1" as="geometry">
            <mxPoint x="-1348" y="600" as="sourcePoint" />
            <mxPoint x="-1020" y="486" as="targetPoint" />
          </mxGeometry>
        </mxCell>
        <mxCell id="7posg-FdAyKpSg142TQ0-135" value="1" style="edgeLabel;html=1;align=center;verticalAlign=middle;resizable=0;points=[];" vertex="1" connectable="0" parent="7posg-FdAyKpSg142TQ0-134">
          <mxGeometry x="-0.7688" y="2" relative="1" as="geometry">
            <mxPoint as="offset" />
          </mxGeometry>
        </mxCell>
        <mxCell id="7posg-FdAyKpSg142TQ0-136" value="1" style="edgeLabel;html=1;align=center;verticalAlign=middle;resizable=0;points=[];" vertex="1" connectable="0" parent="7posg-FdAyKpSg142TQ0-134">
          <mxGeometry x="0.5125" relative="1" as="geometry">
            <mxPoint as="offset" />
          </mxGeometry>
        </mxCell>
        <mxCell id="7posg-FdAyKpSg142TQ0-137" value="" style="endArrow=none;endFill=0;endSize=12;html=1;rounded=0;" edge="1" parent="1" source="7posg-FdAyKpSg142TQ0-116" target="7posg-FdAyKpSg142TQ0-1">
          <mxGeometry width="160" relative="1" as="geometry">
            <mxPoint x="-910" y="679" as="sourcePoint" />
            <mxPoint x="-1155" y="695" as="targetPoint" />
          </mxGeometry>
        </mxCell>
        <mxCell id="7posg-FdAyKpSg142TQ0-138" value="0..*" style="edgeLabel;html=1;align=center;verticalAlign=middle;resizable=0;points=[];" vertex="1" connectable="0" parent="7posg-FdAyKpSg142TQ0-137">
          <mxGeometry x="0.8428" y="-2" relative="1" as="geometry">
            <mxPoint x="8" y="11" as="offset" />
          </mxGeometry>
        </mxCell>
        <mxCell id="7posg-FdAyKpSg142TQ0-139" value="0...*" style="edgeLabel;html=1;align=center;verticalAlign=middle;resizable=0;points=[];" vertex="1" connectable="0" parent="7posg-FdAyKpSg142TQ0-137">
          <mxGeometry x="-0.8177" relative="1" as="geometry">
            <mxPoint as="offset" />
          </mxGeometry>
        </mxCell>
        <mxCell id="7posg-FdAyKpSg142TQ0-140" value="&amp;lt;interact" style="edgeLabel;html=1;align=center;verticalAlign=middle;resizable=0;points=[];" vertex="1" connectable="0" parent="7posg-FdAyKpSg142TQ0-137">
          <mxGeometry x="0.1107" y="-3" relative="1" as="geometry">
            <mxPoint as="offset" />
          </mxGeometry>
        </mxCell>
        <mxCell id="7posg-FdAyKpSg142TQ0-142" value="document" style="swimlane;fontStyle=1;align=center;verticalAlign=top;childLayout=stackLayout;horizontal=1;startSize=26;horizontalStack=0;resizeParent=1;resizeParentMax=0;resizeLast=0;collapsible=1;marginBottom=0;whiteSpace=wrap;html=1;" vertex="1" parent="1">
          <mxGeometry x="-1200" y="923" width="160" height="112" as="geometry" />
        </mxCell>
        <mxCell id="7posg-FdAyKpSg142TQ0-144" value="+name:string" style="text;strokeColor=none;fillColor=none;align=left;verticalAlign=top;spacingLeft=4;spacingRight=4;overflow=hidden;rotatable=0;points=[[0,0.5],[1,0.5]];portConstraint=eastwest;whiteSpace=wrap;html=1;" vertex="1" parent="7posg-FdAyKpSg142TQ0-142">
          <mxGeometry y="26" width="160" height="26" as="geometry" />
        </mxCell>
        <mxCell id="7posg-FdAyKpSg142TQ0-145" value="+path:string" style="text;strokeColor=none;fillColor=none;align=left;verticalAlign=top;spacingLeft=4;spacingRight=4;overflow=hidden;rotatable=0;points=[[0,0.5],[1,0.5]];portConstraint=eastwest;whiteSpace=wrap;html=1;" vertex="1" parent="7posg-FdAyKpSg142TQ0-142">
          <mxGeometry y="52" width="160" height="26" as="geometry" />
        </mxCell>
        <mxCell id="7posg-FdAyKpSg142TQ0-146" value="+date:datetime" style="text;strokeColor=none;fillColor=none;align=left;verticalAlign=top;spacingLeft=4;spacingRight=4;overflow=hidden;rotatable=0;points=[[0,0.5],[1,0.5]];portConstraint=eastwest;whiteSpace=wrap;html=1;" vertex="1" parent="7posg-FdAyKpSg142TQ0-142">
          <mxGeometry y="78" width="160" height="26" as="geometry" />
        </mxCell>
        <mxCell id="7posg-FdAyKpSg142TQ0-147" value="" style="line;strokeWidth=1;fillColor=none;align=left;verticalAlign=middle;spacingTop=-1;spacingLeft=3;spacingRight=3;rotatable=0;labelPosition=right;points=[];portConstraint=eastwest;strokeColor=inherit;" vertex="1" parent="7posg-FdAyKpSg142TQ0-142">
          <mxGeometry y="104" width="160" height="8" as="geometry" />
        </mxCell>
        <mxCell id="7posg-FdAyKpSg142TQ0-148" value="vector_db" style="swimlane;fontStyle=1;align=center;verticalAlign=top;childLayout=stackLayout;horizontal=1;startSize=26;horizontalStack=0;resizeParent=1;resizeParentMax=0;resizeLast=0;collapsible=1;marginBottom=0;whiteSpace=wrap;html=1;" vertex="1" parent="1">
          <mxGeometry x="-830" y="853" width="160" height="112" as="geometry" />
        </mxCell>
        <mxCell id="7posg-FdAyKpSg142TQ0-154" value="" style="line;strokeWidth=1;fillColor=none;align=left;verticalAlign=middle;spacingTop=-1;spacingLeft=3;spacingRight=3;rotatable=0;labelPosition=right;points=[];portConstraint=eastwest;strokeColor=inherit;" vertex="1" parent="7posg-FdAyKpSg142TQ0-148">
          <mxGeometry y="26" width="160" height="8" as="geometry" />
        </mxCell>
        <mxCell id="7posg-FdAyKpSg142TQ0-155" value="+ connect(h,u,p,dbn,p): bool" style="text;strokeColor=none;fillColor=none;align=left;verticalAlign=top;spacingLeft=4;spacingRight=4;overflow=hidden;rotatable=0;points=[[0,0.5],[1,0.5]];portConstraint=eastwest;whiteSpace=wrap;html=1;" vertex="1" parent="7posg-FdAyKpSg142TQ0-148">
          <mxGeometry y="34" width="160" height="26" as="geometry" />
        </mxCell>
        <mxCell id="7posg-FdAyKpSg142TQ0-156" value="+ quary(vect): JSON" style="text;strokeColor=none;fillColor=none;align=left;verticalAlign=top;spacingLeft=4;spacingRight=4;overflow=hidden;rotatable=0;points=[[0,0.5],[1,0.5]];portConstraint=eastwest;whiteSpace=wrap;html=1;" vertex="1" parent="7posg-FdAyKpSg142TQ0-148">
          <mxGeometry y="60" width="160" height="26" as="geometry" />
        </mxCell>
        <mxCell id="7posg-FdAyKpSg142TQ0-157" value="+ store(doc): Bool" style="text;strokeColor=none;fillColor=none;align=left;verticalAlign=top;spacingLeft=4;spacingRight=4;overflow=hidden;rotatable=0;points=[[0,0.5],[1,0.5]];portConstraint=eastwest;whiteSpace=wrap;html=1;" vertex="1" parent="7posg-FdAyKpSg142TQ0-148">
          <mxGeometry y="86" width="160" height="26" as="geometry" />
        </mxCell>
        <mxCell id="7posg-FdAyKpSg142TQ0-161" value="" style="endArrow=diamondThin;endFill=0;endSize=24;html=1;rounded=0;" edge="1" parent="1" source="7posg-FdAyKpSg142TQ0-142" target="7posg-FdAyKpSg142TQ0-148">
          <mxGeometry width="160" relative="1" as="geometry">
            <mxPoint x="-1211" y="790" as="sourcePoint" />
            <mxPoint x="-1088" y="900" as="targetPoint" />
          </mxGeometry>
        </mxCell>
        <mxCell id="7posg-FdAyKpSg142TQ0-162" value="0..*" style="edgeLabel;html=1;align=center;verticalAlign=middle;resizable=0;points=[];" vertex="1" connectable="0" parent="7posg-FdAyKpSg142TQ0-161">
          <mxGeometry x="-0.7688" y="2" relative="1" as="geometry">
            <mxPoint as="offset" />
          </mxGeometry>
        </mxCell>
        <mxCell id="7posg-FdAyKpSg142TQ0-163" value="1" style="edgeLabel;html=1;align=center;verticalAlign=middle;resizable=0;points=[];" vertex="1" connectable="0" parent="7posg-FdAyKpSg142TQ0-161">
          <mxGeometry x="0.5125" relative="1" as="geometry">
            <mxPoint as="offset" />
          </mxGeometry>
        </mxCell>
        <mxCell id="7posg-FdAyKpSg142TQ0-164" value="ask &amp;gt;" style="edgeLabel;html=1;align=center;verticalAlign=middle;resizable=0;points=[];" vertex="1" connectable="0" parent="7posg-FdAyKpSg142TQ0-161">
          <mxGeometry x="-0.1578" y="-2" relative="1" as="geometry">
            <mxPoint as="offset" />
          </mxGeometry>
        </mxCell>
      </root>
    </mxGraphModel>
  </diagram>
</mxfile>
